<svg width="60" height="60" viewBox="0 0 60 60" fill="none" xmlns="http://www.w3.org/2000/svg">
<path d="M47.4998 22.4995C47.4998 26.1245 46.4248 29.4495 44.5748 32.2245C41.8748 36.2245 37.5998 39.0495 32.6248 39.7745C31.7748 39.9245 30.8998 39.9995 29.9998 39.9995C29.0998 39.9995 28.2248 39.9245 27.3748 39.7745C22.3998 39.0495 18.1248 36.2245 15.4248 32.2245C13.5748 29.4495 12.4998 26.1245 12.4998 22.4995C12.4998 12.8245 20.3248 4.99951 29.9998 4.99951C39.6748 4.99951 47.4998 12.8245 47.4998 22.4995Z" stroke="#292D32" stroke-width="1.5" stroke-linecap="round" stroke-linejoin="round"/>
<path d="M53.1248 46.1745L48.9998 47.1495C48.0748 47.3745 47.3498 48.0745 47.1498 48.9995L46.2748 52.6745C45.7998 54.6745 43.2498 55.2746 41.9248 53.6996L29.9998 39.9995L18.0748 53.7245C16.7498 55.2995 14.1998 54.6995 13.7248 52.6995L12.8498 49.0245C12.6248 48.0995 11.8998 47.3745 10.9998 47.1745L6.87478 46.1996C4.97478 45.7496 4.29978 43.3745 5.67478 41.9995L15.4248 32.2495C18.1248 36.2495 22.3998 39.0746 27.3748 39.7996C28.2248 39.9496 29.0998 40.0246 29.9998 40.0246C30.8998 40.0246 31.7748 39.9496 32.6248 39.7996C37.5998 39.0746 41.8748 36.2495 44.5748 32.2495L54.3248 41.9995C55.6998 43.3495 55.0248 45.7245 53.1248 46.1745Z" stroke="#292D32" stroke-width="1.5" stroke-linecap="round" stroke-linejoin="round"/>
<path d="M31.4498 14.9495L32.9248 17.8995C33.1248 18.2995 33.6498 18.6995 34.1248 18.7745L36.7998 19.2245C38.4998 19.4995 38.8998 20.7495 37.6748 21.9745L35.5998 24.0495C35.2498 24.3995 35.0498 25.0745 35.1748 25.5745L35.7748 28.1495C36.2498 30.1745 35.1748 30.9745 33.3748 29.8995L30.8748 28.4245C30.4248 28.1495 29.6748 28.1495 29.2248 28.4245L26.7248 29.8995C24.9248 30.9495 23.8498 30.1745 24.3248 28.1495L24.9248 25.5745C25.0248 25.0995 24.8498 24.3995 24.4998 24.0495L22.4248 21.9745C21.1998 20.7495 21.5998 19.5245 23.2998 19.2245L25.9748 18.7745C26.4248 18.6995 26.9498 18.2995 27.1498 17.8995L28.6248 14.9495C29.3498 13.3495 30.6498 13.3495 31.4498 14.9495Z" stroke="#292D32" stroke-width="1.5" stroke-linecap="round" stroke-linejoin="round"/>
</svg>
