<svg width="60" height="60" viewBox="0 0 60 60" fill="none" xmlns="http://www.w3.org/2000/svg">
<path d="M54.9998 29.9995V42.4995C54.9998 49.9995 49.9998 54.9995 42.4998 54.9995H17.4998C9.99982 54.9995 4.99982 49.9995 4.99982 42.4995V29.9995C4.99982 23.1995 9.09982 18.4495 15.4748 17.6495C16.1248 17.5495 16.7998 17.4995 17.4998 17.4995H42.4998C43.1498 17.4995 43.7748 17.5245 44.3748 17.6245C50.8248 18.3745 54.9998 23.1495 54.9998 29.9995Z" stroke="#292D32" stroke-width="1.5" stroke-linecap="round" stroke-linejoin="round"/>
<path d="M44.3783 17.6245C43.7783 17.5245 43.1533 17.4995 42.5033 17.4995H17.5033C16.8033 17.4995 16.1283 17.5495 15.4783 17.6495C15.8283 16.9495 16.3283 16.2995 16.9283 15.6995L25.0533 7.54951C28.4783 4.14951 34.0283 4.14951 37.4533 7.54951L41.8283 11.9746C43.4283 13.5496 44.2783 15.5495 44.3783 17.6245Z" stroke="#292D32" stroke-width="1.5" stroke-linecap="round" stroke-linejoin="round"/>
<path d="M54.9998 31.2495H47.4998C44.7498 31.2495 42.4998 33.4995 42.4998 36.2495C42.4998 38.9995 44.7498 41.2495 47.4998 41.2495H54.9998" stroke="#292D32" stroke-width="1.5" stroke-linecap="round" stroke-linejoin="round"/>
</svg>
