<svg width="60" height="60" viewBox="0 0 60 60" fill="none" xmlns="http://www.w3.org/2000/svg">
<path d="M57.5027 44.9336C57.5527 46.8086 57.0527 48.5836 56.1527 50.1086C55.6527 51.0086 54.9777 51.8336 54.2277 52.5086C52.5027 54.1086 50.2276 55.0836 47.7026 55.1586C44.0526 55.2336 40.8277 53.3586 39.0527 50.4836C38.1027 49.0086 37.5277 47.2337 37.5027 45.3587C37.4277 42.2087 38.8277 39.3586 41.0777 37.4836C42.7777 36.0836 44.9277 35.2086 47.2777 35.1586C52.8027 35.0336 57.3777 39.4086 57.5027 44.9336Z" stroke="#292D32" stroke-width="1.5" stroke-miterlimit="10" stroke-linecap="round" stroke-linejoin="round"/>
<path d="M52.0311 44.9998C52.0311 47.5873 49.9311 49.6873 47.3436 49.6873C44.7561 49.6873 43.1764 47.081 43.1764 47.081M43.1764 47.081H45.2951M43.1764 47.081V49.4248M42.6561 44.9998C42.6561 42.4123 44.7373 40.3123 47.3436 40.3123C50.4701 40.3123 52.0311 42.9185 52.0311 42.9185M52.0311 42.9185V40.5748M52.0311 42.9185H49.9498" stroke="#292D32" stroke-width="1.5" stroke-linecap="round" stroke-linejoin="round"/>
<path d="M7.92482 18.5999L29.9998 31.3748L51.9248 18.6748" stroke="#292D32" stroke-width="1.5" stroke-linecap="round" stroke-linejoin="round"/>
<path d="M29.9998 54.0249V31.3499" stroke="#292D32" stroke-width="1.5" stroke-linecap="round" stroke-linejoin="round"/>
<path d="M54.0248 22.9248V37.0748C54.0248 37.1998 54.0248 37.2997 53.9998 37.4247C52.2498 35.8997 49.9998 34.9998 47.4998 34.9998C45.1498 34.9998 42.9748 35.8248 41.2498 37.1998C38.9498 39.0248 37.4998 41.8498 37.4998 44.9998C37.4998 46.8748 38.0248 48.6498 38.9498 50.1498C39.1748 50.5498 39.4498 50.9248 39.7498 51.2748L35.1748 53.7999C32.3248 55.3999 27.6748 55.3999 24.8248 53.7999L11.4748 46.3998C8.44978 44.7248 5.97482 40.5248 5.97482 37.0748V22.9248C5.97482 19.4748 8.44978 15.2748 11.4748 13.5998L24.8248 6.19976C27.6748 4.59976 32.3248 4.59976 35.1748 6.19976L48.5248 13.5998C51.5498 15.2748 54.0248 19.4748 54.0248 22.9248Z" stroke="#292D32" stroke-width="1.5" stroke-linecap="round" stroke-linejoin="round"/>
</svg>
