<svg width="60" height="60" viewBox="0 0 60 60" fill="none" xmlns="http://www.w3.org/2000/svg">
<path d="M7.92487 18.5999L29.9998 31.3748L51.9248 18.6748" stroke="#1E1C1C" stroke-width="1.5" stroke-linecap="round" stroke-linejoin="round"/>
<path d="M29.9998 54.0249V31.3499" stroke="#1E1C1C" stroke-width="1.5" stroke-linecap="round" stroke-linejoin="round"/>
<path d="M24.8248 6.19976L11.4748 13.6248C8.44981 15.2998 5.97485 19.4998 5.97485 22.9498V37.0749C5.97485 40.5249 8.44981 44.7248 11.4748 46.3998L24.8248 53.8249C27.6748 55.3999 32.3498 55.3999 35.1998 53.8249L48.5499 46.3998C51.5749 44.7248 54.0498 40.5249 54.0498 37.0749V22.9498C54.0498 19.4998 51.5749 15.2998 48.5499 13.6248L35.1998 6.19976C32.3248 4.59976 27.6748 4.59976 24.8248 6.19976Z" stroke="#1E1C1C" stroke-width="1.5" stroke-linecap="round" stroke-linejoin="round"/>
<path d="M42.4998 33.0998V23.9499L18.7748 10.2498" stroke="#1E1C1C" stroke-width="1.5" stroke-linecap="round" stroke-linejoin="round"/>
</svg>
